#!OML:ASF E:\acrobat2\Project_11_07_03\Capture day 1\Session 1\Acrobat.ASF
:FULLY-SPECIFIED
:DEGREES
459
root 11.5608 16.9719 -2.76508 138.945 75.1935 -32.9432
lowerback -2.19455 -4.47317 -2.41025
upperback -6.11477 -6.34408 -5.49604
thorax -5.51993 -3.15286 -4.21641
lowerneck -6.06698 -10.5121 -2.8164
upperneck -24.9289 -14.3937 6.66806
head -5.93276 -7.00987 2.94201
rclavicle 1.24688e-013 4.53229e-014
rhumerus 84.9271 -38.3988 -58.5065
rradius 31.325
rwrist 40.4649
rhand -39.0208 -55.5434
rfingers 7.12502
rthumb -12.0237 -85.178
lclavicle 1.24688e-013 4.53229e-014
lhumerus 81.2814 21.5539 41.7505
lradius 29.2102
lwrist -9.34654
lhand -58.6546 -82.6267
lfingers 7.12502
lthumb -30.8701 -55.2006
rfemur 19.7643 28.8676 3.38012
rtibia -2.96196
rfoot -44.7199 -49.057
rtoes 55.5537
lfemur -6.69254 -45.9433 51.8022
ltibia -9.6311
lfoot -261.484 164.837
ltoes 58.2862
460
root 11.582 16.9389 -2.45561 139.442 77.1304 -32.9409
lowerback -2.48023 -4.30263 -2.52765
upperback -6.19073 -6.085 -5.273
thorax -5.38118 -3.01249 -3.94557
lowerneck -6.1141 -10.5698 -3.00624
upperneck -24.6634 -14.4136 6.87694
head -5.80563 -7.01799 3.01457
rclavicle 1.28216e-013 6.99722e-014
rhumerus 86.8824 -37.4897 -61.2398
rradius 30.1065
rwrist 41.6207
rhand -39.7851 -57.8313
rfingers 7.12502
rthumb -12.7606 -87.4213
lclavicle 1.28216e-013 6.99722e-014
lhumerus 79.3452 22.653 39.667
lradius 30.6562
lwrist -8.078
lhand -58.5016 -82.5272
lfingers 7.12502
lthumb -30.7243 -55.0736
rfemur 19.9288 31.1015 2.77749
rtibia -3.70058
rfoot -49.849 -47.7391
rtoes 55.9028
lfemur -4.13802 -46.7528 48.1602
ltibia -9.34701
lfoot -260.641 164.367
ltoes 58.4676
461
root 11.6121 16.9066 -2.14384 139.513 78.7631 -33.5341
lowerback -2.79447 -4.22471 -2.87988
upperback -6.34982 -5.95984 -5.09145
thorax -5.30746 -2.92572 -3.58436
lowerneck -6.40243 -10.7031 -3.28528
upperneck -24.143 -14.4724 7.43055
head -5.51994 -7.07691 3.17424
rclavicle -1.26626e-013 -3.02153e-014
rhumerus 90.1172 -36.0542 -65.3516
rradius 28.4437
rwrist 43.57
rhand -40.564 -60.5432
rfingers 7.12502
rthumb -13.5114 90.0849
lclavicle -1.26626e-013 -3.02153e-014
lhumerus 78.8924 23.6045 38.4094
lradius 30.723
lwrist -7.72882
lhand -58.5506 -82.366
lfingers 7.12502
lthumb -30.7709 -54.9211
rfemur 19.636 32.9259 1.39982
rtibia -4.216
rfoot -54.3948 -46.0535
rtoes 56.5507
lfemur -2.0279 -47.9884 44.4726
ltibia -8.97514
lfoot -260.876 165.921
ltoes 58.6394
462
root 11.6488 16.8798 -1.82962 141.514 80.6297 -32.3042
lowerback -3.16593 -4.23068 -2.82838
upperback -6.54512 -5.94968 -4.76359
thorax -5.27018 -2.91748 -3.29304
lowerneck -6.90676 -10.7636 -3.13557
upperneck -23.4757 -14.4825 7.66422
head -5.21774 -7.12146 3.15475
rclavicle 1.53263e-013 1.05356e-013
rhumerus 93.0045 -34.2036 -69.5709
rradius 27.3857
rwrist 45.5779
rhand -40.7767 -62.3216
rfingers 7.12502
rthumb -13.7165 91.8495
lclavicle 1.53263e-013 1.05356e-013
lhumerus 77.7008 24.6718 36.5483
lradius 31.3563
lwrist -7.08572
lhand -58.9004 -81.8906
lfingers 7.12502
lthumb -31.1044 -54.509
rfemur 18.7504 34.2775 0.0157067
rtibia -4.38504
rfoot -58.0965 -44.2351
rtoes 57.2012
lfemur -0.234865 -48.6637 41.4983
ltibia -8.65439
lfoot -260.838 166.789
ltoes 58.648
463
root 11.6831 16.8621 -1.52489 146.388 82.7316 -28.07
lowerback -3.46712 -4.18949 -2.31863
upperback -6.70649 -5.88225 -4.35491
thorax -5.27021 -2.9065 -3.16588
lowerneck -7.24568 -10.7469 -2.93318
upperneck -23.0146 -14.4429 7.56043
head -5.04455 -7.10739 3.04928
rclavicle 1.13108e-013 5.48646e-014
rhumerus 94.2038 -32.628 -72.1743
rradius 27.4974
rwrist 46.4222
rhand -41.3436 -62.8541
rfingers 7.12502
rthumb -14.2627 92.3443
lclavicle 1.13108e-013 5.48646e-014
lhumerus 77.3249 26.0065 35.4301
lradius 30.903
lwrist -6.89403
lhand -59.0867 -82.2595
lfingers 7.12502
lthumb -31.282 -54.9121
rfemur 17.9512 35.8084 -0.891583
rtibia -4.53771
rfoot -61.4414 -42.5593
rtoes 57.6626
lfemur 1.74123 -49.4737 38.8568
ltibia -8.50645
lfoot -261.186 166.766
ltoes 58.4275
464
root 11.716 16.8536 -1.2336 156.16 84.797 -18.8255
lowerback -3.66441 -4.16361 -1.56738
upperback -6.87299 -5.84805 -3.89727
thorax -5.35513 -2.92579 -3.11213
lowerneck -7.43072 -10.6131 -3.19147
upperneck -22.6483 -14.1987 7.48134
head -4.8981 -6.94953 3.03265
rclavicle -2.28006e-013 -8.34896e-014
rhumerus 92.4555 -31.9926 -71.6947
rradius 29.3197
rwrist 44.443
rhand -42.1372 -63.1812
rfingers 7.12502
rthumb -15.0273 92.6158
lclavicle -2.28006e-013 -8.34896e-014
lhumerus 78.7758 26.5942 36.3766
lradius 29.4797
lwrist -8.62699
lhand -59.0895 -82.9789
lfingers 7.12502
lthumb -31.2846 -55.632
rfemur 17.3129 37.5251 -1.62251
rtibia -4.76091
rfoot -64.8722 -40.6485
rtoes 58.1217
lfemur 3.79985 -50.2419 36.3162
ltibia -8.47626
lfoot -261.64 165.793
ltoes 58.3409
465
root 11.7507 16.8547 -0.948526 178.489 86.4899 2.87193
lowerback -3.92007 -4.17755 -0.763848
upperback -7.10911 -5.87445 -3.35333
thorax -5.48127 -2.97886 -2.99904
lowerneck -7.37895 -10.3665 -3.38221
upperneck -22.4544 -13.823 7.26457
head -4.8656 -6.72236 2.99027
rclavicle 7.15625e-014 7.39479e-014
rhumerus 90.9927 -30.9918 -71.8516
rradius 31.0077
rwrist 43.4057
rhand -42.6096 -63.7893
rfingers 7.12502
rthumb -15.4824 93.1894
lclavicle 7.15625e-014 7.39479e-014
lhumerus 79.905 27.1883 37.1803
lradius 28.3586
lwrist -10.2222
lhand -59.1961 -82.7024
lfingers 7.12502
lthumb -31.3862 -55.3752
rfemur 16.3666 38.9204 -2.60864
rtibia -4.96192
rfoot -67.9402 -38.7782
rtoes 58.5251
lfemur 5.49547 -50.6603 34.2121
ltibia -8.53179
lfoot -261.634 164.641
ltoes 58.5872
